PathFileType	4	(X/Y/Z)	Patient4_TMGait_0pt5_01_right_37.trc.trc
DataRate	CameraRate	NumFrames	NumMarkers	Units	OrigDataRate	OrigDataStartFrame	OrigNumFrames
74.866310160428	74.866310160428	4	33	mm	74.866310160428	36	       141
Frame#	Time	L.ASIS			Sacral			L.Shoulder			Chest			R.Shoulder			Neck			R.ASIS			R.Thigh.Superior			R.Thigh.Lateral			R.Thigh.Inferior			R.Patella			L.Thigh.Superior			L.Thigh.Lateral			L.Thigh.Inferior			L.Patella			L.Shank.Superior			L.Shank.Lateral			L.Shank.Inferior			R.Shank.Superior			R.Shank.Lateral			R.Shank.Inferior			R.Heel			R.Midfoot.Superior			R.Midfoot.Lateral			R.Toe			L.Heel			L.Midfoot.Lateral			L.Midfoot.Superior			L.Toe			L.Elbow			L.Wrist			R.Elbow			R.Wrist			
		X1	Y1	Z1	X2	Y2	Z2	X3	Y3	Z3	X4	Y4	Z4	X5	Y5	Z5	X6	Y6	Z6	X7	Y7	Z7	X8	Y8	Z8	X9	Y9	Z9	X10	Y10	Z10	X11	Y11	Z11	X12	Y12	Z12	X13	Y13	Z13	X14	Y14	Z14	X15	Y15	Z15	X16	Y16	Z16	X17	Y17	Z17	X18	Y18	Z18	X19	Y19	Z19	X20	Y20	Z20	X21	Y21	Z21	X22	Y22	Z22	X23	Y23	Z23	X24	Y24	Z24	X25	Y25	Z25	X26	Y26	Z26	X27	Y27	Z27	X28	Y28	Z28	X29	Y29	Z29	X30	Y30	Z30	X31	Y31	Z31	X32	Y32	Z32	X33	Y33	Z33	

36	49.107500000000	857.482754938645	960.451033417104	341.295409294052	634.155032762478	1003.254422062009	483.956911126268	822.913511942190	1435.037830544348	317.963877187993	909.822194106687	1364.476861678314	487.441882629373	808.854219301124	1436.217225285416	654.037482264006	809.021935784478	1494.228917175910	469.665834222638	852.929673217832	940.292310967676	614.992513941092	913.303080237576	749.136350048310	587.453196747707	837.441332498882	634.566289112826	642.548529290308	924.576550294877	588.217682198452	567.858510658505	933.305159744766	499.158662788903	574.842565236464	879.483145805334	736.763767300539	360.771853780128	782.194454076709	630.732223992431	292.877759493337	859.244881823344	540.447257673088	350.755216815993	848.595618555997	458.561946637754	348.388637276830	787.949503314201	399.584638303214	342.351986029730	655.023375593505	337.998817887642	292.028151133843	657.167369307438	210.046255765588	351.988367938442	909.988013420591	409.287969303509	580.099477362616	841.124954518247	301.653254959070	636.224461465262	892.721164265893	209.226665841032	577.812727681326	768.524361139746	43.012670913558	539.059727732039	936.553064870925	98.302556848483	586.983495599183	846.722813039354	36.739765816379	619.865067324851	1054.810337217121	45.810330398352	623.235773267590	479.193400172530	110.656032164098	392.268496480412	544.214224862622	77.076247621981	312.841010370998	643.264818803113	110.405775435398	332.407821654056	744.356511632338	34.044571009080	307.786465430002	835.357626636880	1091.275628267173	174.112576050275	1070.354037732908	980.411573779257	177.745150516878	701.185925920455	1103.378885663108	756.839119539119	752.111574099854	846.923877163087	767.594564199005	
37	49.120857142857	857.098655311904	961.036476463518	343.674041959672	634.506174079279	1004.221916642634	487.633956753847	823.320618769468	1435.533937497124	320.665403254530	911.260759392912	1364.687117617552	489.547806184555	811.669980886832	1436.675089186690	656.848658035864	810.448682330250	1494.707519657027	472.435662737340	853.856625059198	940.594258530868	617.273850670943	912.165139685982	748.235749458228	589.982461875752	834.993524675658	634.549831219606	644.590675756286	921.568361788652	587.482879926394	569.643691205337	929.383500929986	498.491867711604	576.166650374790	884.018384169176	739.064760534568	363.154084493020	791.080265519606	630.731275537692	294.411137454166	870.880744383249	541.996873765013	352.314711356239	861.243314211943	458.804348999113	349.105507474981	798.366978897840	400.029971360321	343.126346101413	663.316368472463	343.574993378178	292.526529652467	660.785220156456	215.526785786099	351.814894355130	905.549401733321	408.849618010426	581.275951556132	836.163656366629	301.512896938417	637.183144742746	887.018945178910	208.936559100430	578.316411582976	761.954361788205	43.061771769211	539.218470245972	930.032212417450	98.239012756680	587.189485422160	840.129092887502	36.725630191382	620.028076032856	1048.272496325366	45.451461040212	623.438680140435	478.915495465399	125.368328556833	391.268345195855	542.094100906315	87.683301178932	312.161645748408	642.788084433407	114.971360409029	331.871877056958	738.229248940901	33.108621346438	308.006857919465	831.985035431171	1090.281019975098	179.461334126220	1062.856162652734	970.163148502736	182.920967589279	708.705147697989	1102.002637932706	760.658234165191	772.004352560142	848.333063948496	770.169965572949	
38	49.134214285714	856.413607425981	961.399148836041	345.827270337160	634.621541988840	1005.065087298680	491.181857542371	823.480478659939	1435.870809161501	323.239379949055	912.584333749472	1364.678281027700	491.445309828393	814.524279425757	1436.897726671847	659.549300368167	811.797209953477	1495.019715504415	475.105339930815	854.606454092679	940.742173613736	619.363141764733	910.823050893084	747.264558721231	592.349136949627	832.461730658638	634.482779079220	646.568492548366	918.436440088107	586.735361423515	571.331175863372	925.339880960737	497.811563594721	577.477911414476	888.562176483987	741.558774857160	365.589016131422	800.288697277935	630.960084139854	295.947862029122	882.665470831715	543.986637532101	354.144601696794	874.190234840083	459.540703522549	350.287420249343	809.286346958165	400.844325765100	344.181383295320	672.411286251053	349.425090286256	293.104303392846	665.200022353155	221.479786097936	351.845938726876	901.019952469894	408.381593186730	582.440475097513	831.118735604063	301.329338216935	638.117438287353	881.273974446616	208.620961697454	578.821148559487	755.339153999875	43.112002880048	539.364986385608	923.478623468496	98.134673317833	587.372284756223	833.488890796854	36.702122359652	620.185110930635	1041.694092313279	45.028334714187	623.633477381639	479.724897623057	140.748276727120	390.215080791373	541.029830365792	99.163682739372	311.457776672455	643.113613542732	120.213906422093	331.591602167758	732.694333423603	32.232277779750	308.372382665220	828.429601594601	1089.156389801795	184.757555310150	1054.513022226044	959.385011189355	187.913594779669	716.555565919741	1100.545723906611	764.628873943524	792.462473729776	850.385121343874	772.726921657591	
39	49.147571428571	855.441935181186	961.552380794990	347.759248270247	634.510196822444	1005.789912443881	494.568116024964	823.430931944613	1436.070236710113	325.659183066986	913.782271796855	1364.473623881334	493.126580082174	817.359217456057	1436.906255667808	662.097343020181	813.081971571036	1495.188418782973	477.639996092884	855.175144753030	940.775954828463	621.276255911253	909.344913837994	746.292518683009	594.535050045607	829.935868903632	634.386923418468	648.469565938068	915.279665433408	586.004121881338	572.921507681193	921.274502007425	497.128264985941	578.774552367025	892.982301139836	744.262697957276	368.103181419606	809.591964406673	631.504131349070	297.506131139844	894.340962668423	546.467579650347	356.222866835196	887.203189902028	460.832273593164	351.886560042971	820.505567425417	402.080702943071	345.491667801053	682.107109147154	355.443342979393	293.777290614229	670.377791600971	227.740052909669	352.078118804272	896.479709498803	407.894237446561	583.582576199845	826.051406649015	301.126887807380	639.026222277022	875.521007067019	208.289590456146	579.322374629969	748.685158321127	43.167536784827	539.504408286766	916.897817680562	98.004800553307	587.539948836032	826.810338228449	36.676687123311	620.337960408564	1035.080179828008	44.567949842124	623.824107139997	481.674618036125	156.216313140103	389.132786160025	541.192153385962	111.055173357475	310.761265196202	644.373872774961	125.970916770400	331.567992096608	728.145191108184	31.506163749926	308.901289748458	824.702088147400	1087.922058185844	189.994411011139	1045.238782595082	948.137928041525	192.682792364902	724.826684397831	1099.015061789971	768.711549331538	813.434356611254	853.112439933570	775.174104489247	
